<svg width="" height="" viewBox="0 0 193 93" fill="none" xmlns="http://www.w3.org/2000/svg">
<path d="M3.52208 23.8682L5.12905 25.7833L27.4616 7.04412L44.5944 27.4623L24.177 44.5945L5.43719 22.2612L3.52208 23.8682L5.12905 25.7833L3.52208 23.8682L1.60697 25.4752L21.9538 49.7235C22.3767 50.2276 22.9952 50.5493 23.651 50.6074C24.3068 50.6641 24.9718 50.4546 25.4758 50.0317L49.7235 29.6855C50.2275 29.2626 50.5492 28.6441 50.6065 27.989C50.664 27.3325 50.4546 26.6675 50.0316 26.1634L29.6848 1.91507C29.2612 1.41024 28.6427 1.08855 27.9868 1.03188C27.3311 0.9738 26.6668 1.18397 26.1627 1.60692L1.91511 21.9531C1.41105 22.376 1.0887 22.9938 1.03126 23.6503C0.973943 24.3054 1.18337 24.9703 1.60697 25.4752L3.52208 23.8682Z" fill="#303C6C"/>
<path d="M138.03 51.1593C137.598 51.4039 137.295 51.4749 136.958 51.4943C136.663 51.5084 136.325 51.4638 135.903 51.3363C135.169 51.1183 134.218 50.6144 133.149 49.9622C131.533 48.9969 129.678 47.702 127.354 46.9468C126.192 46.5739 124.891 46.3549 123.509 46.4648C122.128 46.5705 120.695 47.0136 119.313 47.8147C118.118 48.5047 117.708 50.0347 118.398 51.2298C119.088 52.4258 120.618 52.8348 121.813 52.1448C122.519 51.7396 123.109 51.5536 123.658 51.4759C124.139 51.4094 124.6 51.4283 125.096 51.5208C125.959 51.6796 126.93 52.098 127.982 52.6881C129.571 53.5618 131.257 54.8064 133.278 55.6891C134.293 56.1228 135.427 56.4655 136.69 56.495C137.95 56.531 139.308 56.2044 140.53 55.4895C141.725 54.7995 142.135 53.2704 141.445 52.0744C140.754 50.8784 139.225 50.4694 138.03 51.1593Z" fill="#00160A"/>
<path d="M163.207 36.6234C162.775 36.8679 162.472 36.9389 162.135 36.9583C161.84 36.9724 161.502 36.9278 161.08 36.8003C160.346 36.5823 159.396 36.078 158.326 35.4262C156.711 34.4604 154.857 33.1663 152.532 32.4103C151.371 32.0382 150.07 31.8193 148.688 31.9291C147.306 32.0349 145.873 32.478 144.492 33.2786C143.296 33.9691 142.887 35.4985 143.577 36.6936C144.268 37.8896 145.796 38.2992 146.992 37.6087C147.697 37.2039 148.287 37.018 148.836 36.9403C149.316 36.8742 149.778 36.8926 150.274 36.9852C151.136 37.1445 152.109 37.5624 153.16 38.1524C154.749 39.0261 156.435 40.2713 158.456 41.1526C159.47 41.5868 160.605 41.929 161.868 41.9585C163.127 41.995 164.485 41.6684 165.707 40.9535C166.903 40.263 167.312 38.7344 166.622 37.5384C165.931 36.3424 164.403 35.9329 163.207 36.6234Z" fill="#00160A"/>
<path d="M140.53 55.4895C141.599 54.8778 142.471 54.0352 143.069 53.0916C143.596 52.2665 143.919 51.3883 144.116 50.5355C144.458 49.0356 144.456 47.5958 144.432 46.2299C144.378 44.1862 144.284 42.2864 144.605 40.8724C144.761 40.1624 144.994 39.5834 145.346 39.0695C145.702 38.5571 146.184 38.0788 146.992 37.6087C148.187 36.9187 148.598 35.3896 147.907 34.1936C147.217 32.9985 145.687 32.5886 144.492 33.2786C143.287 33.9723 142.296 34.8328 141.545 35.8013C140.885 36.6473 140.413 37.5654 140.092 38.483C139.531 40.0946 139.402 41.6838 139.378 43.1489C139.357 45.3437 139.541 47.338 139.363 48.7187C139.281 49.4091 139.128 49.9142 138.935 50.2663C138.733 50.6185 138.518 50.8684 138.03 51.1593C136.834 51.8498 136.424 53.3784 137.115 54.5744C137.805 55.7704 139.334 56.18 140.53 55.4895Z" fill="#00160A"/>
<path d="M165.707 40.9534C166.776 40.3409 167.648 39.4992 168.246 38.5547C168.773 37.7305 169.097 36.8522 169.293 35.9986C169.635 34.4996 169.632 33.0594 169.608 31.6935C169.554 29.6507 169.46 27.75 169.781 26.3374C169.938 25.6268 170.17 25.0479 170.522 24.5345C170.878 24.0216 171.36 23.5438 172.168 23.0737L170.921 20.9147L171.985 23.1703C172.075 23.1272 172.137 23.0912 172.168 23.0737L170.921 20.9147L171.985 23.1703C173.233 22.581 173.769 21.0914 173.18 19.8428C172.592 18.5936 171.102 18.0576 169.853 18.6468C169.762 18.6904 169.699 18.7256 169.668 18.7436C168.464 19.4377 167.473 20.2973 166.72 21.2663C166.061 22.1109 165.59 23.0299 165.268 23.9475C164.706 25.5596 164.578 27.1483 164.555 28.6134C164.534 30.8068 164.717 32.8025 164.539 34.1823C164.458 34.8736 164.306 35.3782 164.111 35.7308C163.909 36.083 163.694 36.3329 163.206 36.6238C162.011 37.3138 161.602 38.8433 162.293 40.0393C162.983 41.2344 164.511 41.6439 165.707 40.9534Z" fill="#00160A"/>
</svg>
