<svg width="" height="" viewBox="0 0 193 93" fill="none" xmlns="http://www.w3.org/2000/svg">
<path d="M37.5965 22.7688L40.0115 23.4138L45.4285 3.14583C45.6595 2.28283 45.4125 1.36183 44.7805 0.730828C44.1475 0.0998276 43.2265 -0.146169 42.3645 0.085831L22.1125 5.53283H22.1135L1.85151 10.9758C0.988512 11.2068 0.315513 11.8818 0.0845133 12.7448C-0.145487 13.6078 0.101508 14.5278 0.733508 15.1588L15.5765 29.9768L15.5755 29.9758L30.4155 44.8018C31.0475 45.4328 31.9685 45.6798 32.8305 45.4478C33.6935 45.2158 34.3675 44.5418 34.5975 43.6788L40.0115 23.4138L37.5965 22.7688L35.1815 22.1238L30.8855 38.2038L19.1095 26.4388L19.1085 26.4378L7.33151 14.6808L23.4105 10.3618H23.4115L39.4795 6.03983L35.1815 22.1238L37.5965 22.7688Z" fill="#303C6C"/>
<path d="M147.154 82.0077C146.687 82.1736 146.376 82.1909 146.04 82.1514C145.748 82.1141 145.422 82.0114 145.029 81.8127C144.344 81.4704 143.494 80.8091 142.556 79.9812C141.132 78.75 139.53 77.1526 137.372 76.0053C136.293 75.4363 135.05 74.9948 133.669 74.8629C132.291 74.7272 130.802 74.9147 129.302 75.4637C128.006 75.9357 127.336 77.3712 127.808 78.668C128.281 79.9657 129.716 80.6341 131.012 80.1622C131.778 79.8856 132.391 79.805 132.945 79.8237C133.431 79.8417 133.882 79.9405 134.354 80.1177C135.176 80.4239 136.06 81.0046 136.994 81.7684C138.406 82.9047 139.851 84.4232 141.688 85.6435C142.612 86.2468 143.67 86.7813 144.908 87.0297C146.143 87.2838 147.536 87.198 148.864 86.7061C150.161 86.2341 150.831 84.7996 150.358 83.5019C149.886 82.2041 148.451 81.5357 147.154 82.0077Z" fill="#303C6C"/>
<path d="M174.473 72.0645C174.005 72.2304 173.694 72.2477 173.359 72.2082C173.066 72.1709 172.741 72.0682 172.348 71.8695C171.662 71.5272 170.814 70.8655 169.874 70.038C168.451 68.8065 166.85 67.21 164.692 66.0617C163.612 65.4937 162.369 65.0521 160.989 64.9203C159.611 64.7846 158.122 64.9721 156.623 65.5207C155.325 65.9931 154.657 67.4283 155.129 68.725C155.601 70.0227 157.036 70.6915 158.333 70.2192C159.098 69.943 159.711 69.8624 160.265 69.8811C160.75 69.8995 161.202 69.9979 161.674 70.1751C162.495 70.4816 163.38 71.062 164.313 71.8258C165.726 72.9621 167.17 74.481 169.008 75.6999C169.931 76.3036 170.989 76.8378 172.228 77.0861C173.461 77.3406 174.855 77.2548 176.183 76.7629C177.481 76.2906 178.149 74.8564 177.677 73.5587C177.205 72.2609 175.77 71.5921 174.473 72.0645Z" fill="#303C6C"/>
<path d="M148.864 86.7061C150.024 86.2895 151.028 85.611 151.781 84.7856C152.444 84.0646 152.914 83.2558 153.257 82.4502C153.854 81.0325 154.101 79.6142 154.315 78.2648C154.616 76.2427 154.854 74.3556 155.416 73.0188C155.693 72.3466 156.023 71.8169 156.459 71.3719C156.898 70.9291 157.456 70.5418 158.333 70.2192C159.63 69.7472 160.3 68.3126 159.828 67.0149C159.356 65.7181 157.92 65.0487 156.623 65.5207C155.316 65.9946 154.191 66.67 153.283 67.4933C152.486 68.212 151.862 69.0341 151.386 69.882C150.553 71.3716 150.151 72.9144 149.873 74.3531C149.471 76.5108 149.305 78.5067 148.891 79.8356C148.691 80.5013 148.452 80.9722 148.2 81.2853C147.94 81.5971 147.685 81.8059 147.154 82.0077C145.856 82.48 145.188 83.9142 145.66 85.212C146.132 86.5097 147.567 87.1785 148.864 86.7061Z" fill="#303C6C"/>
<path d="M176.183 76.7629C177.342 76.3453 178.347 75.6678 179.1 74.8415C179.762 74.1214 180.233 73.3126 180.575 72.5061C181.172 71.0893 181.419 69.6704 181.632 68.321C181.934 66.2999 182.172 64.4118 182.733 63.0763C183.011 62.4038 183.34 61.8741 183.776 61.4294C184.216 60.9862 184.773 60.5993 185.65 60.2767L184.798 57.934L185.453 60.3399C185.55 60.3133 185.617 60.2886 185.65 60.2767L184.798 57.934L185.453 60.3399C186.785 59.9765 187.572 58.6026 187.208 57.2706C186.846 55.9382 185.472 55.1517 184.14 55.5152C184.042 55.5422 183.974 55.5659 183.94 55.5782C182.634 56.0527 181.509 56.7272 180.599 57.5508C179.804 58.2682 179.18 59.0913 178.704 59.9391C177.87 61.4291 177.469 62.9715 177.191 64.4102C176.789 66.5667 176.623 68.5639 176.209 69.8918C176.008 70.5585 175.771 71.029 175.518 71.3425C175.258 71.6542 175.003 71.863 174.472 72.0648C173.175 72.5368 172.507 73.972 172.979 75.2697C173.451 76.5665 174.885 77.2352 176.183 76.7629Z" fill="#303C6C"/>
<path d="M109.105 41.071L107.775 38.954C107.143 39.35 106.46 39.533 105.773 39.534C105.146 39.534 104.523 39.377 103.972 39.079C103.421 38.78 102.944 38.348 102.581 37.772C102.184 37.139 102.001 36.456 102 35.768C102 35.143 102.157 34.52 102.454 33.969C102.753 33.418 103.185 32.941 103.761 32.578C104.389 32.184 105.071 32.001 105.759 32C106.385 32 107.01 32.157 107.561 32.455C108.113 32.754 108.591 33.186 108.953 33.761L108.954 33.763C109.35 34.392 109.532 35.073 109.533 35.76C109.533 36.387 109.376 37.011 109.078 37.563C108.779 38.115 108.347 38.593 107.773 38.955L107.775 38.954L109.105 41.071L110.437 43.187C111.754 42.359 112.786 41.223 113.478 39.938C114.171 38.652 114.533 37.217 114.533 35.76C114.534 34.167 114.095 32.54 113.185 31.098L113.186 31.1C112.358 29.781 111.222 28.748 109.936 28.055C108.65 27.361 107.215 27 105.759 27C104.166 26.999 102.541 27.438 101.099 28.345C99.781 29.173 98.748 30.308 98.055 31.593C97.362 32.878 97 34.313 97 35.768C96.999 37.363 97.439 38.99 98.348 40.433C99.175 41.75 100.31 42.784 101.595 43.478C102.881 44.172 104.316 44.533 105.773 44.534C107.366 44.535 108.992 44.095 110.435 43.188L110.437 43.187L109.105 41.071Z" fill="#00160A"/>
</svg>
