<svg xmlns="http://www.w3.org/2000/svg" version="1.1" xmlns:xlink="http://www.w3.org/1999/xlink" xmlns:svgjs="http://svgjs.com/svgjs" width="1440" height="560" preserveAspectRatio="none" viewBox="0 0 1440 560"><g mask="url(&quot;#SvgjsMask1000&quot;)" fill="none"><rect width="1440" height="560" x="0" y="0" fill="#0e2a47"></rect><path d="M177.44 -28.73L242.39 8.77L242.39 83.77L177.44 121.27L112.48 83.77L112.48 8.77zM242.39 83.77L307.35 121.27L307.35 196.27L242.39 233.77L177.44 196.27L177.44 121.27zM242.39 533.77L307.35 571.27L307.35 646.27L242.39 683.77L177.44 646.27L177.44 571.27zM372.3 83.77L437.25 121.27L437.25 196.27L372.3 233.77L307.35 196.27L307.35 121.27zM437.25 196.27L502.21 233.77L502.21 308.77L437.25 346.27L372.3 308.77L372.3 233.77zM697.07 421.27L762.02 458.77L762.02 533.77L697.07 571.27L632.11 533.77L632.11 458.77zM891.93 308.77L956.88 346.27L956.88 421.27L891.93 458.77L826.97 421.27L826.97 346.27zM1021.84 83.77L1086.79 121.27L1086.79 196.27L1021.84 233.77L956.88 196.27L956.88 121.27zM956.88 421.27L1021.84 458.77L1021.84 533.77L956.88 571.27L891.93 533.77L891.93 458.77zM1216.7 -28.73L1281.65 8.77L1281.65 83.77L1216.7 121.27L1151.74 83.77L1151.74 8.77zM1541.47 83.77L1606.42 121.27L1606.42 196.27L1541.47 233.77L1476.51 196.27L1476.51 121.27z" stroke="#03305d" stroke-width="2"></path><path d="M169.94 -28.73 a7.5 7.5 0 1 0 15 0 a7.5 7.5 0 1 0 -15 0zM234.89 8.77 a7.5 7.5 0 1 0 15 0 a7.5 7.5 0 1 0 -15 0zM234.89 83.77 a7.5 7.5 0 1 0 15 0 a7.5 7.5 0 1 0 -15 0zM169.94 121.27 a7.5 7.5 0 1 0 15 0 a7.5 7.5 0 1 0 -15 0zM104.98 83.77 a7.5 7.5 0 1 0 15 0 a7.5 7.5 0 1 0 -15 0zM104.98 8.77 a7.5 7.5 0 1 0 15 0 a7.5 7.5 0 1 0 -15 0zM299.85 121.27 a7.5 7.5 0 1 0 15 0 a7.5 7.5 0 1 0 -15 0zM299.85 196.27 a7.5 7.5 0 1 0 15 0 a7.5 7.5 0 1 0 -15 0zM234.89 233.77 a7.5 7.5 0 1 0 15 0 a7.5 7.5 0 1 0 -15 0zM169.94 196.27 a7.5 7.5 0 1 0 15 0 a7.5 7.5 0 1 0 -15 0zM234.89 533.77 a7.5 7.5 0 1 0 15 0 a7.5 7.5 0 1 0 -15 0zM299.85 571.27 a7.5 7.5 0 1 0 15 0 a7.5 7.5 0 1 0 -15 0zM299.85 646.27 a7.5 7.5 0 1 0 15 0 a7.5 7.5 0 1 0 -15 0zM234.89 683.77 a7.5 7.5 0 1 0 15 0 a7.5 7.5 0 1 0 -15 0zM169.94 646.27 a7.5 7.5 0 1 0 15 0 a7.5 7.5 0 1 0 -15 0zM169.94 571.27 a7.5 7.5 0 1 0 15 0 a7.5 7.5 0 1 0 -15 0zM364.8 83.77 a7.5 7.5 0 1 0 15 0 a7.5 7.5 0 1 0 -15 0zM429.75 121.27 a7.5 7.5 0 1 0 15 0 a7.5 7.5 0 1 0 -15 0zM429.75 196.27 a7.5 7.5 0 1 0 15 0 a7.5 7.5 0 1 0 -15 0zM364.8 233.77 a7.5 7.5 0 1 0 15 0 a7.5 7.5 0 1 0 -15 0zM494.71 233.77 a7.5 7.5 0 1 0 15 0 a7.5 7.5 0 1 0 -15 0zM494.71 308.77 a7.5 7.5 0 1 0 15 0 a7.5 7.5 0 1 0 -15 0zM429.75 346.27 a7.5 7.5 0 1 0 15 0 a7.5 7.5 0 1 0 -15 0zM364.8 308.77 a7.5 7.5 0 1 0 15 0 a7.5 7.5 0 1 0 -15 0zM689.57 421.27 a7.5 7.5 0 1 0 15 0 a7.5 7.5 0 1 0 -15 0zM754.52 458.77 a7.5 7.5 0 1 0 15 0 a7.5 7.5 0 1 0 -15 0zM754.52 533.77 a7.5 7.5 0 1 0 15 0 a7.5 7.5 0 1 0 -15 0zM689.57 571.27 a7.5 7.5 0 1 0 15 0 a7.5 7.5 0 1 0 -15 0zM624.61 533.77 a7.5 7.5 0 1 0 15 0 a7.5 7.5 0 1 0 -15 0zM624.61 458.77 a7.5 7.5 0 1 0 15 0 a7.5 7.5 0 1 0 -15 0zM884.43 308.77 a7.5 7.5 0 1 0 15 0 a7.5 7.5 0 1 0 -15 0zM949.38 346.27 a7.5 7.5 0 1 0 15 0 a7.5 7.5 0 1 0 -15 0zM949.38 421.27 a7.5 7.5 0 1 0 15 0 a7.5 7.5 0 1 0 -15 0zM884.43 458.77 a7.5 7.5 0 1 0 15 0 a7.5 7.5 0 1 0 -15 0zM819.47 421.27 a7.5 7.5 0 1 0 15 0 a7.5 7.5 0 1 0 -15 0zM819.47 346.27 a7.5 7.5 0 1 0 15 0 a7.5 7.5 0 1 0 -15 0zM1014.34 83.77 a7.5 7.5 0 1 0 15 0 a7.5 7.5 0 1 0 -15 0zM1079.29 121.27 a7.5 7.5 0 1 0 15 0 a7.5 7.5 0 1 0 -15 0zM1079.29 196.27 a7.5 7.5 0 1 0 15 0 a7.5 7.5 0 1 0 -15 0zM1014.34 233.77 a7.5 7.5 0 1 0 15 0 a7.5 7.5 0 1 0 -15 0zM949.38 196.27 a7.5 7.5 0 1 0 15 0 a7.5 7.5 0 1 0 -15 0zM949.38 121.27 a7.5 7.5 0 1 0 15 0 a7.5 7.5 0 1 0 -15 0zM1014.34 458.77 a7.5 7.5 0 1 0 15 0 a7.5 7.5 0 1 0 -15 0zM1014.34 533.77 a7.5 7.5 0 1 0 15 0 a7.5 7.5 0 1 0 -15 0zM949.38 571.27 a7.5 7.5 0 1 0 15 0 a7.5 7.5 0 1 0 -15 0zM884.43 533.77 a7.5 7.5 0 1 0 15 0 a7.5 7.5 0 1 0 -15 0zM1209.2 -28.73 a7.5 7.5 0 1 0 15 0 a7.5 7.5 0 1 0 -15 0zM1274.15 8.77 a7.5 7.5 0 1 0 15 0 a7.5 7.5 0 1 0 -15 0zM1274.15 83.77 a7.5 7.5 0 1 0 15 0 a7.5 7.5 0 1 0 -15 0zM1209.2 121.27 a7.5 7.5 0 1 0 15 0 a7.5 7.5 0 1 0 -15 0zM1144.24 83.77 a7.5 7.5 0 1 0 15 0 a7.5 7.5 0 1 0 -15 0zM1144.24 8.77 a7.5 7.5 0 1 0 15 0 a7.5 7.5 0 1 0 -15 0zM1533.97 83.77 a7.5 7.5 0 1 0 15 0 a7.5 7.5 0 1 0 -15 0zM1598.92 121.27 a7.5 7.5 0 1 0 15 0 a7.5 7.5 0 1 0 -15 0zM1598.92 196.27 a7.5 7.5 0 1 0 15 0 a7.5 7.5 0 1 0 -15 0zM1533.97 233.77 a7.5 7.5 0 1 0 15 0 a7.5 7.5 0 1 0 -15 0zM1469.01 196.27 a7.5 7.5 0 1 0 15 0 a7.5 7.5 0 1 0 -15 0zM1469.01 121.27 a7.5 7.5 0 1 0 15 0 a7.5 7.5 0 1 0 -15 0z" fill="#03305d"></path><path d="M49.69 -26.26L92.99 -1.26L92.99 48.74L49.69 73.74L6.39 48.74L6.39 -1.26zM92.99 48.74L136.3 73.74L136.3 123.74L92.99 148.74L49.69 123.74L49.69 73.74zM92.99 198.74L136.3 223.74L136.3 273.74L92.99 298.74L49.69 273.74L49.69 223.74zM92.99 348.74L136.3 373.74L136.3 423.74L92.99 448.74L49.69 423.74L49.69 373.74zM179.6 198.74L222.9 223.74L222.9 273.74L179.6 298.74L136.3 273.74L136.3 223.74zM136.3 273.74L179.6 298.74L179.6 348.74L136.3 373.74L92.99 348.74L92.99 298.74zM136.3 423.74L179.6 448.74L179.6 498.74L136.3 523.74L92.99 498.74L92.99 448.74zM179.6 498.74L222.9 523.74L222.9 573.74L179.6 598.74L136.3 573.74L136.3 523.74zM222.9 123.74L266.2 148.74L266.2 198.74L222.9 223.74L179.6 198.74L179.6 148.74zM266.2 348.74L309.5 373.74L309.5 423.74L266.2 448.74L222.9 423.74L222.9 373.74zM222.9 423.74L266.2 448.74L266.2 498.74L222.9 523.74L179.6 498.74L179.6 448.74zM266.2 498.74L309.5 523.74L309.5 573.74L266.2 598.74L222.9 573.74L222.9 523.74zM309.5 273.74L352.81 298.74L352.81 348.74L309.5 373.74L266.2 348.74L266.2 298.74zM352.81 348.74L396.11 373.74L396.11 423.74L352.81 448.74L309.5 423.74L309.5 373.74zM352.81 498.74L396.11 523.74L396.11 573.74L352.81 598.74L309.5 573.74L309.5 523.74zM396.11 123.74L439.41 148.74L439.41 198.74L396.11 223.74L352.81 198.74L352.81 148.74zM439.41 198.74L482.72 223.74L482.72 273.74L439.41 298.74L396.11 273.74L396.11 223.74zM439.41 348.74L482.72 373.74L482.72 423.74L439.41 448.74L396.11 423.74L396.11 373.74zM482.72 273.74L526.02 298.74L526.02 348.74L482.72 373.74L439.41 348.74L439.41 298.74zM526.02 348.74L569.32 373.74L569.32 423.74L526.02 448.74L482.72 423.74L482.72 373.74zM482.72 423.74L526.02 448.74L526.02 498.74L482.72 523.74L439.41 498.74L439.41 448.74zM612.62 48.74L655.92 73.74L655.92 123.74L612.62 148.74L569.32 123.74L569.32 73.74zM612.62 198.74L655.92 223.74L655.92 273.74L612.62 298.74L569.32 273.74L569.32 223.74zM569.32 273.74L612.62 298.74L612.62 348.74L569.32 373.74L526.02 348.74L526.02 298.74zM612.62 348.74L655.92 373.74L655.92 423.74L612.62 448.74L569.32 423.74L569.32 373.74zM699.23 198.74L742.53 223.74L742.53 273.74L699.23 298.74L655.92 273.74L655.92 223.74zM699.23 348.74L742.53 373.74L742.53 423.74L699.23 448.74L655.92 423.74L655.92 373.74zM742.53 -26.26L785.83 -1.26L785.83 48.74L742.53 73.74L699.23 48.74L699.23 -1.26zM742.53 123.74L785.83 148.74L785.83 198.74L742.53 223.74L699.23 198.74L699.23 148.74zM785.83 348.74L829.13 373.74L829.13 423.74L785.83 448.74L742.53 423.74L742.53 373.74zM829.13 273.74L872.44 298.74L872.44 348.74L829.13 373.74L785.83 348.74L785.83 298.74zM829.13 423.74L872.44 448.74L872.44 498.74L829.13 523.74L785.83 498.74L785.83 448.74zM872.44 498.74L915.74 523.74L915.74 573.74L872.44 598.74L829.13 573.74L829.13 523.74zM915.74 -26.26L959.04 -1.26L959.04 48.74L915.74 73.74L872.44 48.74L872.44 -1.26zM959.04 48.74L1002.35 73.74L1002.35 123.74L959.04 148.74L915.74 123.74L915.74 73.74zM915.74 123.74L959.04 148.74L959.04 198.74L915.74 223.74L872.44 198.74L872.44 148.74zM959.04 198.74L1002.35 223.74L1002.35 273.74L959.04 298.74L915.74 273.74L915.74 223.74zM915.74 423.74L959.04 448.74L959.04 498.74L915.74 523.74L872.44 498.74L872.44 448.74zM1002.35 -26.26L1045.65 -1.26L1045.65 48.74L1002.35 73.74L959.04 48.74L959.04 -1.26zM1045.65 48.74L1088.95 73.74L1088.95 123.74L1045.65 148.74L1002.35 123.74L1002.35 73.74zM1002.35 273.74L1045.65 298.74L1045.65 348.74L1002.35 373.74L959.04 348.74L959.04 298.74zM1045.65 498.74L1088.95 523.74L1088.95 573.74L1045.65 598.74L1002.35 573.74L1002.35 523.74zM1088.95 123.74L1132.25 148.74L1132.25 198.74L1088.95 223.74L1045.65 198.74L1045.65 148.74zM1132.25 198.74L1175.56 223.74L1175.56 273.74L1132.25 298.74L1088.95 273.74L1088.95 223.74zM1088.95 423.74L1132.25 448.74L1132.25 498.74L1088.95 523.74L1045.65 498.74L1045.65 448.74zM1132.25 498.74L1175.56 523.74L1175.56 573.74L1132.25 598.74L1088.95 573.74L1088.95 523.74zM1175.56 -26.26L1218.86 -1.26L1218.86 48.74L1175.56 73.74L1132.25 48.74L1132.25 -1.26zM1175.56 123.74L1218.86 148.74L1218.86 198.74L1175.56 223.74L1132.25 198.74L1132.25 148.74zM1175.56 273.74L1218.86 298.74L1218.86 348.74L1175.56 373.74L1132.25 348.74L1132.25 298.74zM1262.16 -26.26L1305.46 -1.26L1305.46 48.74L1262.16 73.74L1218.86 48.74L1218.86 -1.26zM1262.16 123.74L1305.46 148.74L1305.46 198.74L1262.16 223.74L1218.86 198.74L1218.86 148.74zM1305.46 498.74L1348.77 523.74L1348.77 573.74L1305.46 598.74L1262.16 573.74L1262.16 523.74zM1348.77 -26.26L1392.07 -1.26L1392.07 48.74L1348.77 73.74L1305.46 48.74L1305.46 -1.26zM1392.07 198.74L1435.37 223.74L1435.37 273.74L1392.07 298.74L1348.77 273.74L1348.77 223.74zM1392.07 348.74L1435.37 373.74L1435.37 423.74L1392.07 448.74L1348.77 423.74L1348.77 373.74zM1348.77 423.74L1392.07 448.74L1392.07 498.74L1348.77 523.74L1305.46 498.74L1305.46 448.74zM1392.07 498.74L1435.37 523.74L1435.37 573.74L1392.07 598.74L1348.77 573.74L1348.77 523.74zM1435.37 -26.26L1478.67 -1.26L1478.67 48.74L1435.37 73.74L1392.07 48.74L1392.07 -1.26zM1478.67 48.74L1521.98 73.74L1521.98 123.74L1478.67 148.74L1435.37 123.74L1435.37 73.74zM1435.37 273.74L1478.67 298.74L1478.67 348.74L1435.37 373.74L1392.07 348.74L1392.07 298.74zM1478.67 348.74L1521.98 373.74L1521.98 423.74L1478.67 448.74L1435.37 423.74L1435.37 373.74z" stroke="rgba(6, 80, 156, 0.93)" stroke-width="2"></path></g><defs><mask id="SvgjsMask1000"><rect width="1440" height="560" fill="#ffffff"></rect></mask></defs></svg>